<svg width="54" height="54" viewBox="0 0 54 54" fill="none" xmlns="http://www.w3.org/2000/svg">
<circle cx="27" cy="27" r="27" fill="black"/>
<path d="M26.6 38.7467C18.8667 38.72 15.2133 36.32 15.4 30.5067H22.04C22.12 32.0267 23.4 32.96 26.6 32.9867C29.4267 33.0133 30.7333 32.2133 30.7333 31.1733C30.7333 30.4533 30.3333 29.7067 28.1467 29.3867L25.2667 28.9333C21.0267 28.24 15.9333 27.7333 15.9333 22C15.9333 17.5733 19.5333 14.8533 26.6533 14.8533C33.08 14.8533 37.56 16.64 37.4267 23.04H30.84C30.5733 21.5467 29.32 20.6133 26.4933 20.6133C24.04 20.6133 23.0267 21.36 23.0267 22.3733C23.0267 23.0133 23.4267 23.7867 25.1333 24.0533L27.5067 24.4533C31.96 25.2 38.0667 25.3333 38.0667 31.4667C38.0667 36.3467 34.28 38.7733 26.6 38.7467Z" fill="white"/>
</svg>
