<svg width="31" height="25" viewBox="0 0 31 25" fill="none" xmlns="http://www.w3.org/2000/svg">
<path d="M19.2941 0.526716L30.453 11.2371C30.6264 11.4029 30.7639 11.6 30.8578 11.8169C30.9517 12.0339 31 12.2666 31 12.5015C31 12.7364 30.9517 12.9691 30.8578 13.186C30.7639 13.403 30.6264 13.6001 30.453 13.7659L19.2941 24.4763C18.9447 24.8116 18.4708 25 17.9767 25C17.4826 25 17.0087 24.8116 16.6593 24.4763C16.3099 24.1409 16.1137 23.6861 16.1137 23.2118C16.1137 22.7376 16.3099 22.2828 16.6593 21.9474L24.6426 14.2851H1.85982C1.36656 14.2851 0.893512 14.097 0.544728 13.7622C0.195945 13.4275 -5.882e-09 12.9734 0 12.5C5.882e-09 12.0266 0.195945 11.5725 0.544728 11.2378C0.893512 10.903 1.36656 10.7149 1.85982 10.7149L24.6426 10.7149L16.6578 3.05258C16.3084 2.71723 16.1121 2.26241 16.1121 1.78816C16.1121 1.31391 16.3084 0.859087 16.6578 0.523743C17.0072 0.188399 17.481 -5.65536e-09 17.9751 0C18.4693 5.65536e-09 18.9431 0.188399 19.2925 0.523743L19.2941 0.526716Z" fill="black"/>
</svg>
