<svg width="34" height="32" viewBox="0 0 34 32" fill="none" xmlns="http://www.w3.org/2000/svg">
<path d="M14.4067 29.037C14.4067 29.6231 14.2377 30.1959 13.9211 30.6832C13.6045 31.1704 13.1545 31.5502 12.628 31.7745C12.1015 31.9987 11.5222 32.0574 10.9633 31.9431C10.4043 31.8287 9.89092 31.5465 9.48796 31.1322C9.085 30.7178 8.81057 30.1898 8.6994 29.6151C8.58822 29.0403 8.64528 28.4446 8.86336 27.9032C9.08144 27.3618 9.45075 26.899 9.92459 26.5734C10.3984 26.2478 10.9555 26.0741 11.5254 26.0741C12.2896 26.0741 13.0224 26.3862 13.5628 26.9419C14.1032 27.4976 14.4067 28.2512 14.4067 29.037ZM26.5084 26.0741C25.9385 26.0741 25.3814 26.2478 24.9076 26.5734C24.4337 26.899 24.0644 27.3618 23.8464 27.9032C23.6283 28.4446 23.5712 29.0403 23.6824 29.6151C23.7936 30.1898 24.068 30.7178 24.4709 31.1322C24.8739 31.5465 25.3873 31.8287 25.9462 31.9431C26.5052 32.0574 27.0845 31.9987 27.611 31.7745C28.1375 31.5502 28.5875 31.1704 28.9041 30.6832C29.2207 30.1959 29.3897 29.6231 29.3897 29.037C29.3897 28.2512 29.0861 27.4976 28.5458 26.9419C28.0054 26.3862 27.2725 26.0741 26.5084 26.0741ZM33.9235 8.22667L29.9919 21.3674C29.7409 22.2172 29.2301 22.9611 28.5353 23.4888C27.8406 24.0164 26.9989 24.2996 26.1352 24.2963H11.9475C11.0714 24.2934 10.2199 23.9986 9.52043 23.4562C8.82098 22.9137 8.3113 22.1528 8.06776 21.2874L3.14211 3.55556H1.72881C1.2703 3.55556 0.83057 3.36825 0.506356 3.03486C0.182142 2.70146 0 2.24927 0 1.77778C0 1.30628 0.182142 0.854097 0.506356 0.520699C0.83057 0.187301 1.2703 0 1.72881 0H3.57575C4.20149 0.00198791 4.80974 0.212566 5.30925 0.600145C5.80876 0.987724 6.17259 1.53141 6.34616 2.14963L7.39641 5.92593H32.2711C32.5416 5.9259 32.8084 5.99118 33.05 6.11651C33.2915 6.24184 33.5011 6.42373 33.6618 6.64753C33.8226 6.87133 33.93 7.1308 33.9754 7.40507C34.0209 7.67934 34.0031 7.96075 33.9235 8.22667ZM29.93 9.48148H8.38327L11.3928 20.3111C11.4273 20.435 11.5001 20.544 11.6002 20.6215C11.7003 20.699 11.8222 20.7409 11.9475 20.7407H26.1352C26.2586 20.741 26.3787 20.7005 26.4781 20.6253C26.5774 20.5501 26.6506 20.4442 26.687 20.323L29.93 9.48148Z" fill="black"/>
</svg>
