<svg width="31" height="22" viewBox="0 0 31 22" fill="none" xmlns="http://www.w3.org/2000/svg">
<path d="M30.4724 2.96663L11.4012 21.4893C11.2351 21.6511 11.0377 21.7796 10.8204 21.8672C10.603 21.9549 10.37 22 10.1347 22C9.8994 22 9.66639 21.9549 9.44907 21.8672C9.23174 21.7796 9.03437 21.6511 8.86826 21.4893L0.524581 13.3856C0.358269 13.2241 0.226342 13.0323 0.136334 12.8213C0.0463264 12.6102 2.47825e-09 12.384 0 12.1556C-2.47825e-09 11.9272 0.0463264 11.701 0.136334 11.4899C0.226342 11.2789 0.358269 11.0871 0.524581 10.9256C0.690894 10.764 0.888336 10.6359 1.10563 10.5485C1.32293 10.4611 1.55583 10.4161 1.79103 10.4161C2.02624 10.4161 2.25913 10.4611 2.47643 10.5485C2.69373 10.6359 2.89117 10.764 3.05748 10.9256L10.1362 17.8007L27.9425 0.50949C28.2784 0.183269 28.734 0 29.209 0C29.684 0 30.1395 0.183269 30.4754 0.50949C30.8113 0.835711 31 1.27816 31 1.73951C31 2.20085 30.8113 2.64331 30.4754 2.96953L30.4724 2.96663Z" fill="black"/>
</svg>
