<svg width="27" height="15" viewBox="0 0 27 15" fill="none" xmlns="http://www.w3.org/2000/svg">
<path d="M26.4806 2.95946L14.7454 14.4912C14.5819 14.6525 14.3875 14.7804 14.1736 14.8678C13.9596 14.9551 13.7302 15 13.4985 15C13.2669 15 13.0375 14.9551 12.8235 14.8678C12.6095 14.7804 12.4152 14.6525 12.2517 14.4912L0.516469 2.95946C0.185779 2.6345 -4.9273e-09 2.19377 0 1.73421C4.92801e-09 1.27465 0.185779 0.833914 0.516469 0.508957C0.847158 0.184 1.29567 0.00144178 1.76333 0.00144178C2.231 0.00144178 2.67951 0.184 3.0102 0.508957L13.5 10.8169L23.9898 0.507516C24.3205 0.18256 24.769 0 25.2367 0C25.7043 0 26.1528 0.18256 26.4835 0.507516C26.8142 0.832473 27 1.27321 27 1.73277C27 2.19233 26.8142 2.63306 26.4835 2.95802L26.4806 2.95946Z" fill="black"/>
</svg>
