<svg width="32" height="9" viewBox="0 0 32 9" fill="none" xmlns="http://www.w3.org/2000/svg">
<path d="M20.1481 4.5C20.1481 5.39001 19.9049 6.26004 19.4491 7.00006C18.9933 7.74009 18.3454 8.31686 17.5874 8.65745C16.8295 8.99805 15.9954 9.08717 15.1907 8.91353C14.3861 8.7399 13.6469 8.31132 13.0668 7.68198C12.4867 7.05264 12.0916 6.25082 11.9316 5.3779C11.7715 4.50499 11.8536 3.60019 12.1676 2.77792C12.4816 1.95566 13.0133 1.25285 13.6954 0.758386C14.3776 0.26392 15.1796 0 16 0C17.1002 0 18.1553 0.474106 18.9332 1.31802C19.7111 2.16193 20.1481 3.30652 20.1481 4.5ZM4.14815 0C3.32772 0 2.52572 0.26392 1.84356 0.758386C1.1614 1.25285 0.629724 1.95566 0.315761 2.77792C0.00179733 3.60019 -0.0803498 4.50499 0.0797074 5.3779C0.239765 6.25082 0.634837 7.05264 1.21497 7.68198C1.7951 8.31132 2.53422 8.7399 3.33889 8.91353C4.14355 9.08717 4.9776 8.99805 5.73558 8.65745C6.49355 8.31686 7.1414 7.74009 7.59721 7.00006C8.05301 6.26004 8.2963 5.39001 8.2963 4.5C8.2963 3.30652 7.85926 2.16193 7.08133 1.31802C6.3034 0.474106 5.24831 0 4.14815 0ZM27.8519 0C27.0314 0 26.2294 0.26392 25.5473 0.758386C24.8651 1.25285 24.3334 1.95566 24.0195 2.77792C23.7055 3.60019 23.6234 4.50499 23.7834 5.3779C23.9435 6.25082 24.3385 7.05264 24.9187 7.68198C25.4988 8.31132 26.2379 8.7399 27.0426 8.91353C27.8473 9.08717 28.6813 8.99805 29.4393 8.65745C30.1973 8.31686 30.8451 7.74009 31.3009 7.00006C31.7567 6.26004 32 5.39001 32 4.5C32 3.90905 31.8927 3.32389 31.6842 2.77792C31.4758 2.23196 31.1702 1.73588 30.785 1.31802C30.3998 0.900156 29.9426 0.568688 29.4393 0.342542C28.936 0.116396 28.3966 0 27.8519 0Z" fill="black"/>
</svg>
