<svg width="31" height="29" viewBox="0 0 31 29" fill="none" xmlns="http://www.w3.org/2000/svg">
<path d="M17.2222 13.92V27.26C17.2222 27.7215 17.0408 28.1641 16.7178 28.4904C16.3948 28.8167 15.9568 29 15.5 29C15.0432 29 14.6052 28.8167 14.2822 28.4904C13.9592 28.1641 13.7778 27.7215 13.7778 27.26V13.92C13.7778 13.4585 13.9592 13.0159 14.2822 12.6896C14.6052 12.3633 15.0432 12.18 15.5 12.18C15.9568 12.18 16.3948 12.3633 16.7178 12.6896C17.0408 13.0159 17.2222 13.4585 17.2222 13.92ZM25.8333 23.78C25.3766 23.78 24.9385 23.9633 24.6155 24.2896C24.2926 24.6159 24.1111 25.0585 24.1111 25.52V27.26C24.1111 27.7215 24.2926 28.1641 24.6155 28.4904C24.9385 28.8167 25.3766 29 25.8333 29C26.2901 29 26.7281 28.8167 27.0511 28.4904C27.3741 28.1641 27.5556 27.7215 27.5556 27.26V25.52C27.5556 25.0585 27.3741 24.6159 27.0511 24.2896C26.7281 23.9633 26.2901 23.78 25.8333 23.78ZM29.2778 17.98H27.5556V1.74C27.5556 1.27852 27.3741 0.835948 27.0511 0.509634C26.7281 0.183321 26.2901 0 25.8333 0C25.3766 0 24.9385 0.183321 24.6155 0.509634C24.2926 0.835948 24.1111 1.27852 24.1111 1.74V17.98H22.3889C21.9321 17.98 21.4941 18.1633 21.1711 18.4896C20.8481 18.8159 20.6667 19.2585 20.6667 19.72C20.6667 20.1815 20.8481 20.6241 21.1711 20.9504C21.4941 21.2767 21.9321 21.46 22.3889 21.46H29.2778C29.7345 21.46 30.1726 21.2767 30.4956 20.9504C30.8186 20.6241 31 20.1815 31 19.72C31 19.2585 30.8186 18.8159 30.4956 18.4896C30.1726 18.1633 29.7345 17.98 29.2778 17.98ZM5.16667 19.14C4.70991 19.14 4.27185 19.3233 3.94887 19.6496C3.62589 19.9759 3.44444 20.4185 3.44444 20.88V27.26C3.44444 27.7215 3.62589 28.1641 3.94887 28.4904C4.27185 28.8167 4.70991 29 5.16667 29C5.62343 29 6.06148 28.8167 6.38446 28.4904C6.70744 28.1641 6.88889 27.7215 6.88889 27.26V20.88C6.88889 20.4185 6.70744 19.9759 6.38446 19.6496C6.06148 19.3233 5.62343 19.14 5.16667 19.14ZM8.61111 13.34H6.88889V1.74C6.88889 1.27852 6.70744 0.835948 6.38446 0.509634C6.06148 0.183321 5.62343 0 5.16667 0C4.70991 0 4.27185 0.183321 3.94887 0.509634C3.62589 0.835948 3.44444 1.27852 3.44444 1.74V13.34H1.72222C1.26546 13.34 0.827407 13.5233 0.504427 13.8496C0.181448 14.1759 0 14.6185 0 15.08C0 15.5415 0.181448 15.9841 0.504427 16.3104C0.827407 16.6367 1.26546 16.82 1.72222 16.82H8.61111C9.06787 16.82 9.50593 16.6367 9.82891 16.3104C10.1519 15.9841 10.3333 15.5415 10.3333 15.08C10.3333 14.6185 10.1519 14.1759 9.82891 13.8496C9.50593 13.5233 9.06787 13.34 8.61111 13.34ZM18.9444 6.38H17.2222V1.74C17.2222 1.27852 17.0408 0.835948 16.7178 0.509634C16.3948 0.183321 15.9568 0 15.5 0C15.0432 0 14.6052 0.183321 14.2822 0.509634C13.9592 0.835948 13.7778 1.27852 13.7778 1.74V6.38H12.0556C11.5988 6.38 11.1607 6.56332 10.8378 6.88963C10.5148 7.21595 10.3333 7.65852 10.3333 8.12C10.3333 8.58148 10.5148 9.02405 10.8378 9.35037C11.1607 9.67668 11.5988 9.86 12.0556 9.86H18.9444C19.4012 9.86 19.8393 9.67668 20.1622 9.35037C20.4852 9.02405 20.6667 8.58148 20.6667 8.12C20.6667 7.65852 20.4852 7.21595 20.1622 6.88963C19.8393 6.56332 19.4012 6.38 18.9444 6.38Z" fill="black"/>
</svg>
