<svg width="33" height="31" viewBox="0 0 33 31" fill="none" xmlns="http://www.w3.org/2000/svg">
<path fill-rule="evenodd" clip-rule="evenodd" d="M16.5 0C7.35625 0 0 7.08236 0 15.8857C0 22.9018 4.74375 28.859 11.275 30.977C12.1 31.1094 12.375 30.6461 12.375 30.1828C12.375 29.7856 12.375 28.7928 12.375 27.469C7.76875 28.4618 6.80625 25.3509 6.80625 25.3509C6.05 23.4975 4.95 23.0342 4.95 23.0342C3.4375 22.0414 5.0875 22.0414 5.0875 22.0414C6.7375 22.1737 7.63125 23.6961 7.63125 23.6961C9.075 26.1452 11.4813 25.4171 12.4438 25.0199C12.5813 23.9609 12.9937 23.299 13.475 22.9018C9.83125 22.5047 5.98125 21.1147 5.98125 15.0252C5.98125 13.3042 6.6 11.8481 7.7 10.789C7.5625 10.3919 6.94375 8.8033 7.8375 6.55284C7.8375 6.55284 9.2125 6.15569 12.375 8.20759C13.6812 7.87664 15.125 7.67807 16.5 7.67807C17.875 7.67807 19.3187 7.87664 20.625 8.20759C23.7875 6.15569 25.1625 6.55284 25.1625 6.55284C26.0562 8.73711 25.5062 10.3257 25.3 10.789C26.3312 11.9142 27.0187 13.3042 27.0187 15.0252C27.0187 21.1147 23.1687 22.4385 19.4562 22.8356C20.075 23.299 20.5562 24.2918 20.5562 25.748C20.5562 27.8661 20.5562 29.587 20.5562 30.1166C20.5562 30.5137 20.8312 31.0432 21.725 30.9109C28.2562 28.859 33 22.9018 33 15.8857C33 7.08236 25.6438 0 16.5 0Z" fill="black"/>
</svg>
