<svg width="33" height="33" viewBox="0 0 33 33" fill="none" xmlns="http://www.w3.org/2000/svg">
<path d="M16.5 2.973C20.9055 2.973 21.4272 2.9895 23.1676 3.06885C24.214 3.08166 25.2504 3.27379 26.2319 3.6369C26.9436 3.91137 27.59 4.33182 28.1294 4.8712C28.6688 5.41057 29.0892 6.05691 29.3637 6.76861C29.7268 7.75001 29.919 8.7864 29.9318 9.83275C30.0104 11.573 30.0276 12.0947 30.0276 16.5C30.0276 20.9053 30.0111 21.427 29.9318 23.1673C29.919 24.2136 29.7268 25.25 29.3637 26.2314C29.0892 26.9431 28.6688 27.5894 28.1294 28.1288C27.59 28.6682 26.9436 29.0886 26.2319 29.3631C25.2504 29.7262 24.214 29.9183 23.1676 29.9311C21.428 30.0097 20.9063 30.027 16.5 30.027C12.0937 30.027 11.572 30.0105 9.83243 29.9311C8.78604 29.9183 7.74959 29.7262 6.76814 29.3631C6.05641 29.0886 5.41004 28.6682 4.87064 28.1288C4.33124 27.5894 3.91077 26.9431 3.63629 26.2314C3.27316 25.25 3.08102 24.2136 3.06821 23.1673C2.98964 21.427 2.97236 20.9053 2.97236 16.5C2.97236 12.0947 2.98886 11.573 3.06821 9.83275C3.08102 8.7864 3.27316 7.75001 3.63629 6.76861C3.91077 6.05691 4.33124 5.41057 4.87064 4.8712C5.41004 4.33182 6.05641 3.91137 6.76814 3.6369C7.74959 3.27379 8.78604 3.08166 9.83243 3.06885C11.5728 2.99029 12.0945 2.973 16.5 2.973ZM16.5 0C12.0214 0 11.4573 0.0188562 9.69729 0.0989952C8.32782 0.126233 6.9729 0.385516 5.69014 0.865816C4.58975 1.28039 3.59307 1.93007 2.76964 2.76951C1.9294 3.59319 1.27914 4.59039 0.864286 5.69144C0.383963 6.97414 0.124668 8.329 0.0974286 9.69839C0.0188572 11.4567 0 12.0209 0 16.4992C0 20.9776 0.0188571 21.5417 0.0989999 23.3016C0.126239 24.671 0.385535 26.0259 0.865857 27.3086C1.28025 28.4095 1.92997 29.4066 2.76964 30.2305C3.59352 31.0701 4.59076 31.7198 5.69171 32.1342C6.97447 32.6145 8.32939 32.8738 9.69886 32.901C11.4589 32.9796 12.0206 33 16.5016 33C20.9825 33 21.5443 32.9811 23.3043 32.901C24.6737 32.8738 26.0287 32.6145 27.3114 32.1342C28.4072 31.7095 29.4022 31.0608 30.2329 30.2296C31.0636 29.3984 31.7117 28.4029 32.1357 27.307C32.616 26.0243 32.8753 24.6694 32.9026 23.3C32.9811 21.5417 33 20.9776 33 16.4992C33 12.0209 32.9811 11.4567 32.901 9.69682C32.8738 8.32743 32.6145 6.97257 32.1341 5.68987C31.7197 4.58897 31.07 3.59178 30.2304 2.76794C29.4065 1.9283 28.4092 1.27862 27.3083 0.864244C26.0255 0.383945 24.6706 0.124662 23.3011 0.097424C21.5427 0.0188563 20.9786 0 16.5 0Z" fill="black"/>
<path d="M16.5034 8.02986C14.8276 8.02986 13.1894 8.52678 11.796 9.45778C10.4026 10.3888 9.31654 11.712 8.67523 13.2602C8.03392 14.8084 7.86612 16.512 8.19306 18.1556C8.52 19.7991 9.32699 21.3088 10.512 22.4937C11.697 23.6787 13.2067 24.4856 14.8504 24.8125C16.494 25.1395 18.1977 24.9717 19.7459 24.3304C21.2942 23.6891 22.6175 22.6031 23.5486 21.2098C24.4796 19.8165 24.9765 18.1784 24.9765 16.5026C24.9765 14.2555 24.0838 12.1004 22.4948 10.5115C20.9058 8.92253 18.7506 8.02986 16.5034 8.02986ZM16.5034 22.0023C15.4156 22.0023 14.3522 21.6798 13.4478 21.0755C12.5433 20.4712 11.8383 19.6122 11.4221 18.6073C11.0058 17.6023 10.8969 16.4965 11.1091 15.4297C11.3213 14.3628 11.8451 13.3829 12.6143 12.6137C13.3835 11.8446 14.3635 11.3208 15.4304 11.1085C16.4973 10.8963 17.6032 11.0052 18.6082 11.4215C19.6131 11.8378 20.4721 12.5427 21.0765 13.4471C21.6808 14.3515 22.0034 15.4149 22.0034 16.5026C22.0034 17.9612 21.4239 19.3601 20.3925 20.3915C19.361 21.4229 17.9621 22.0023 16.5034 22.0023Z" fill="black"/>
<path d="M25.3096 9.673C26.4031 9.673 27.2896 8.78657 27.2896 7.6931C27.2896 6.59963 26.4031 5.71319 25.3096 5.71319C24.2161 5.71319 23.3296 6.59963 23.3296 7.6931C23.3296 8.78657 24.2161 9.673 25.3096 9.673Z" fill="black"/>
</svg>
