<svg width="32" height="25" viewBox="0 0 32 25" fill="none" xmlns="http://www.w3.org/2000/svg">
<path d="M30.2222 0H1.77778C1.30628 0 0.854097 0.188137 0.520699 0.523023C0.187301 0.85791 0 1.31211 0 1.78571V22.0238C0 22.8131 0.312168 23.5701 0.867832 24.1283C1.4235 24.6864 2.17714 25 2.96296 25H29.037C29.8229 25 30.5765 24.6864 31.1322 24.1283C31.6878 23.5701 32 22.8131 32 22.0238V1.78571C32 1.31211 31.8127 0.85791 31.4793 0.523023C31.1459 0.188137 30.6937 0 30.2222 0ZM16 12.4583L6.34815 3.57143H25.6518L16 12.4583ZM10.7837 12.5L3.55556 19.1548V5.84524L10.7837 12.5ZM13.4148 14.9226L14.7985 16.1979C15.1264 16.4999 15.5551 16.6675 16 16.6675C16.4449 16.6675 16.8736 16.4999 17.2015 16.1979L18.5852 14.9226L25.6518 21.4286H6.34815L13.4148 14.9226ZM21.2163 12.5L28.4444 5.84524V19.1548L21.2163 12.5Z" fill="black"/>
</svg>
