<svg width="29" height="22" viewBox="0 0 29 22" fill="none" xmlns="http://www.w3.org/2000/svg">
<path d="M29 11C29 11.4606 28.8167 11.9024 28.4904 12.2281C28.1641 12.5539 27.7215 12.7368 27.26 12.7368H1.74C1.27852 12.7368 0.835948 12.5539 0.509634 12.2281C0.183321 11.9024 0 11.4606 0 11C0 10.5394 0.183321 10.0976 0.509634 9.77187C0.835948 9.44615 1.27852 9.26316 1.74 9.26316H27.26C27.7215 9.26316 28.1641 9.44615 28.4904 9.77187C28.8167 10.0976 29 10.5394 29 11ZM1.74 3.47368H27.26C27.7215 3.47368 28.1641 3.2907 28.4904 2.96498C28.8167 2.63925 29 2.19748 29 1.73684C29 1.2762 28.8167 0.83443 28.4904 0.508709C28.1641 0.182988 27.7215 0 27.26 0H1.74C1.27852 0 0.835948 0.182988 0.509634 0.508709C0.183321 0.83443 0 1.2762 0 1.73684C0 2.19748 0.183321 2.63925 0.509634 2.96498C0.835948 3.2907 1.27852 3.47368 1.74 3.47368ZM27.26 18.5263H1.74C1.27852 18.5263 0.835948 18.7093 0.509634 19.035C0.183321 19.3607 0 19.8025 0 20.2632C0 20.7238 0.183321 21.1656 0.509634 21.4913C0.835948 21.817 1.27852 22 1.74 22H27.26C27.7215 22 28.1641 21.817 28.4904 21.4913C28.8167 21.1656 29 20.7238 29 20.2632C29 19.8025 28.8167 19.3607 28.4904 19.035C28.1641 18.7093 27.7215 18.5263 27.26 18.5263Z" fill="black"/>
</svg>
