<svg width="30" height="29" viewBox="0 0 30 29" fill="none" xmlns="http://www.w3.org/2000/svg">
<path d="M30 14.5C30 14.9615 29.8104 15.4041 29.4728 15.7304C29.1352 16.0567 28.6774 16.24 28.2 16.24H16.8V27.26C16.8 27.7215 16.6104 28.1641 16.2728 28.4904C15.9352 28.8167 15.4774 29 15 29C14.5226 29 14.0648 28.8167 13.7272 28.4904C13.3896 28.1641 13.2 27.7215 13.2 27.26V16.24H1.8C1.32261 16.24 0.864773 16.0567 0.527208 15.7304C0.189642 15.4041 0 14.9615 0 14.5C0 14.0385 0.189642 13.5959 0.527208 13.2696C0.864773 12.9433 1.32261 12.76 1.8 12.76H13.2V1.74C13.2 1.27852 13.3896 0.835948 13.7272 0.509634C14.0648 0.183321 14.5226 0 15 0C15.4774 0 15.9352 0.183321 16.2728 0.509634C16.6104 0.835948 16.8 1.27852 16.8 1.74V12.76H28.2C28.6774 12.76 29.1352 12.9433 29.4728 13.2696C29.8104 13.5959 30 14.0385 30 14.5Z" fill="black"/>
</svg>
