<svg width="33" height="33" viewBox="0 0 33 33" fill="none" xmlns="http://www.w3.org/2000/svg">
<path d="M32.1373 15.4949L17.5058 0.863294C17.233 0.588697 16.9084 0.37099 16.5508 0.2228C16.1932 0.0746089 15.8098 -0.00111712 15.4227 1.2453e-05H1.76782C1.29897 1.2453e-05 0.849321 0.186264 0.517792 0.517792C0.186264 0.849321 1.2453e-05 1.29897 1.2453e-05 1.76782V15.4227C-0.00111712 15.8098 0.0746089 16.1932 0.2228 16.5508C0.37099 16.9084 0.588697 17.233 0.863294 17.5058L15.4949 32.1373C16.0474 32.6897 16.7967 33 17.5779 33C18.3592 33 19.1085 32.6897 19.661 32.1373L32.1373 19.661C32.6897 19.1085 33 18.3592 33 17.5779C33 16.7967 32.6897 16.0474 32.1373 15.4949ZM17.5779 29.2205L3.53563 15.1737V3.53563H15.1737L29.216 17.5779L17.5779 29.2205ZM10.6069 8.2498C10.6069 8.71599 10.4686 9.1717 10.2096 9.55932C9.95064 9.94694 9.58251 10.2491 9.15181 10.4275C8.72111 10.6059 8.24718 10.6525 7.78995 10.5616C7.33273 10.4706 6.91273 10.2462 6.58309 9.91651C6.25345 9.58686 6.02896 9.16687 5.93801 8.70964C5.84706 8.25241 5.89374 7.77848 6.07214 7.34778C6.25054 6.91708 6.55265 6.54896 6.94027 6.28996C7.32789 6.03096 7.78361 5.89272 8.2498 5.89272C8.87494 5.89272 9.47447 6.14105 9.91651 6.58309C10.3585 7.02513 10.6069 7.62466 10.6069 8.2498Z" fill="black"/>
</svg>
