<svg width="33" height="32" viewBox="0 0 33 32" fill="none" xmlns="http://www.w3.org/2000/svg">
<path d="M32.4566 28.9591L25.2097 21.9292C27.3825 19.1836 28.397 15.7393 28.0473 12.2952C27.6975 8.85097 26.0098 5.66474 23.3264 3.3828C20.643 1.10086 17.1649 -0.105904 13.5976 0.007301C10.0304 0.120506 6.64111 1.5452 4.11734 3.99239C1.59356 6.43957 0.124277 9.72599 0.00752951 13.185C-0.109218 16.644 1.13532 20.0165 3.48867 22.6185C5.84203 25.2204 9.12798 26.857 12.68 27.1961C16.2319 27.5352 19.784 26.5515 22.6155 24.4446L29.8685 31.479C30.0389 31.6442 30.2411 31.7752 30.4636 31.8646C30.6862 31.954 30.9247 32 31.1656 32C31.4065 32 31.6451 31.954 31.8676 31.8646C32.0902 31.7752 32.2924 31.6442 32.4627 31.479C32.6331 31.3139 32.7682 31.1178 32.8604 30.902C32.9526 30.6862 33 30.4549 33 30.2213C33 29.9877 32.9526 29.7564 32.8604 29.5406C32.7682 29.3248 32.6331 29.1287 32.4627 28.9636L32.4566 28.9591ZM3.69317 13.6429C3.69317 11.6529 4.30176 9.70754 5.44197 8.05287C6.58218 6.39821 8.20281 5.10856 10.0989 4.347C11.995 3.58545 14.0814 3.38619 16.0943 3.77443C18.1072 4.16267 19.9562 5.12096 21.4074 6.52814C22.8586 7.93531 23.8469 9.72816 24.2473 11.68C24.6477 13.6318 24.4422 15.6549 23.6568 17.4934C22.8714 19.332 21.5414 20.9034 19.8349 22.0091C18.1285 23.1147 16.1223 23.7048 14.0699 23.7048C11.3187 23.702 8.68098 22.6411 6.73558 20.7547C4.79017 18.8683 3.696 16.3107 3.69317 13.6429Z" fill="black"/>
</svg>
