<svg width="25" height="25" viewBox="0 0 25 25" fill="none" xmlns="http://www.w3.org/2000/svg">
<path d="M24.4733 21.9476C24.8086 22.2829 24.997 22.7377 24.997 23.212C24.997 23.6862 24.8086 24.141 24.4733 24.4763C24.1379 24.8116 23.6831 25 23.2089 25C22.7346 25 22.2798 24.8116 21.9445 24.4763L12.5 15.0294L3.05257 24.4733C2.71723 24.8086 2.2624 24.997 1.78816 24.997C1.31391 24.997 0.859083 24.8086 0.523739 24.4733C0.188395 24.138 7.06685e-09 23.6832 0 23.209C-7.06685e-09 22.7348 0.188395 22.28 0.523739 21.9446L9.97117 12.5007L0.526714 3.05388C0.191369 2.71855 0.00297516 2.26376 0.00297517 1.78954C0.00297517 1.31532 0.191369 0.860519 0.526714 0.525195C0.862058 0.189871 1.31688 0.00148722 1.79113 0.00148721C2.26538 0.00148721 2.7202 0.189871 3.05555 0.525195L12.5 9.97206L21.9474 0.523707C22.2828 0.188383 22.7376 -7.90051e-09 23.2118 0C23.6861 7.90051e-09 24.1409 0.188383 24.4763 0.523707C24.8116 0.859032 25 1.31383 25 1.78805C25 2.26227 24.8116 2.71707 24.4763 3.05239L15.0288 12.5007L24.4733 21.9476Z" fill="black"/>
</svg>
