<svg width="29" height="31" viewBox="0 0 29 31" fill="none" xmlns="http://www.w3.org/2000/svg">
<path d="M27.7917 4.76923H21.75V3.57692C21.75 2.62826 21.3681 1.71846 20.6883 1.04766C20.0084 0.376853 19.0864 0 18.125 0H10.875C9.91359 0 8.99156 0.376853 8.31174 1.04766C7.63192 1.71846 7.25 2.62826 7.25 3.57692V4.76923H1.20833C0.887863 4.76923 0.580519 4.89485 0.353913 5.11845C0.127306 5.34205 0 5.64532 0 5.96154C0 6.27776 0.127306 6.58103 0.353913 6.80463C0.580519 7.02823 0.887863 7.15385 1.20833 7.15385H2.41667V28.6154C2.41667 29.2478 2.67128 29.8544 3.12449 30.3016C3.5777 30.7488 4.19239 31 4.83333 31H24.1667C24.8076 31 25.4223 30.7488 25.8755 30.3016C26.3287 29.8544 26.5833 29.2478 26.5833 28.6154V7.15385H27.7917C28.1121 7.15385 28.4195 7.02823 28.6461 6.80463C28.8727 6.58103 29 6.27776 29 5.96154C29 5.64532 28.8727 5.34205 28.6461 5.11845C28.4195 4.89485 28.1121 4.76923 27.7917 4.76923ZM12.0833 22.6538C12.0833 22.9701 11.956 23.2733 11.7294 23.4969C11.5028 23.7205 11.1955 23.8462 10.875 23.8462C10.5545 23.8462 10.2472 23.7205 10.0206 23.4969C9.79397 23.2733 9.66667 22.9701 9.66667 22.6538V13.1154C9.66667 12.7992 9.79397 12.4959 10.0206 12.2723C10.2472 12.0487 10.5545 11.9231 10.875 11.9231C11.1955 11.9231 11.5028 12.0487 11.7294 12.2723C11.956 12.4959 12.0833 12.7992 12.0833 13.1154V22.6538ZM19.3333 22.6538C19.3333 22.9701 19.206 23.2733 18.9794 23.4969C18.7528 23.7205 18.4455 23.8462 18.125 23.8462C17.8045 23.8462 17.4972 23.7205 17.2706 23.4969C17.044 23.2733 16.9167 22.9701 16.9167 22.6538V13.1154C16.9167 12.7992 17.044 12.4959 17.2706 12.2723C17.4972 12.0487 17.8045 11.9231 18.125 11.9231C18.4455 11.9231 18.7528 12.0487 18.9794 12.2723C19.206 12.4959 19.3333 12.7992 19.3333 13.1154V22.6538ZM19.3333 4.76923H9.66667V3.57692C9.66667 3.2607 9.79397 2.95744 10.0206 2.73383C10.2472 2.51023 10.5545 2.38462 10.875 2.38462H18.125C18.4455 2.38462 18.7528 2.51023 18.9794 2.73383C19.206 2.95744 19.3333 3.2607 19.3333 3.57692V4.76923Z" fill="black"/>
</svg>
