<svg width="28" height="22" viewBox="0 0 28 22" fill="none" xmlns="http://www.w3.org/2000/svg">
<path d="M28 2.55155C26.95 3.00515 25.8417 3.28866 24.675 3.45876C25.8417 2.77835 26.775 1.70103 27.1833 0.396907C26.075 1.02062 24.85 1.47423 23.5083 1.75773C22.4583 0.680412 20.9417 0 19.3083 0C16.1583 0 13.5917 2.49484 13.5917 5.5567C13.5917 6.01031 13.65 6.40722 13.7667 6.80412C9.04167 6.57732 4.78333 4.36598 1.925 0.963918C1.45833 1.81443 1.16667 2.72165 1.16667 3.74227C1.16667 5.6701 2.15833 7.37113 3.73333 8.39175C2.8 8.33505 1.925 8.10825 1.10833 7.71134V7.76804C1.10833 10.4897 3.09167 12.7577 5.71667 13.268C5.25 13.3814 4.725 13.4381 4.2 13.4381C3.85 13.4381 3.44167 13.3814 3.09167 13.3247C3.85 15.5361 5.95 17.1804 8.45833 17.1804C6.475 18.6546 4.025 19.5619 1.34167 19.5619C0.875 19.5619 0.408333 19.5619 0 19.5052C2.56667 21.0928 5.54167 22 8.80833 22C19.3667 22 25.1417 13.4948 25.1417 6.12371C25.1417 5.89691 25.1417 5.6134 25.1417 5.3866C26.25 4.64948 27.2417 3.68557 28 2.55155Z" fill="black"/>
</svg>
