<svg width="31" height="32" viewBox="0 0 31 32" fill="none" xmlns="http://www.w3.org/2000/svg">
<path d="M15.5 0C12.4344 0 9.43763 0.938383 6.88867 2.69649C4.33971 4.45459 2.35303 6.95345 1.17987 9.87706C0.00671593 12.8007 -0.300236 16.0177 0.297835 19.1214C0.895906 22.2251 2.37214 25.0761 4.53985 27.3137C6.70756 29.5513 9.4694 31.0752 12.4761 31.6926C15.4828 32.3099 18.5993 31.9931 21.4316 30.7821C24.2638 29.5711 26.6846 27.5203 28.3878 24.8891C30.0909 22.2579 31 19.1645 31 16C30.9954 11.758 29.3609 7.69105 26.4551 4.69149C23.5493 1.69193 19.6095 0.00470552 15.5 0ZM8.5494 26.1585C9.34891 25.0301 10.395 24.1122 11.6027 23.4794C12.8104 22.8467 14.1457 22.5169 15.5 22.5169C16.8544 22.5169 18.1896 22.8467 19.3973 23.4794C20.605 24.1122 21.6511 25.0301 22.4506 26.1585C20.4192 27.6456 17.9904 28.4444 15.5 28.4444C13.0096 28.4444 10.5808 27.6456 8.5494 26.1585ZM11.4815 14.8148C11.4815 13.9944 11.7172 13.1924 12.1587 12.5102C12.6003 11.8281 13.2279 11.2964 13.9622 10.9824C14.6965 10.6685 15.5045 10.5863 16.284 10.7464C17.0635 10.9064 17.7795 11.3015 18.3415 11.8816C18.9035 12.4618 19.2863 13.2009 19.4413 14.0055C19.5964 14.8102 19.5168 15.6443 19.2126 16.4022C18.9085 17.1602 18.3934 17.8081 17.7326 18.2639C17.0717 18.7197 16.2948 18.963 15.5 18.963C14.4342 18.963 13.4121 18.5259 12.6585 17.748C11.9049 16.9701 11.4815 15.915 11.4815 14.8148ZM24.9722 23.6948C23.856 22.2292 22.4331 21.0431 20.8102 20.2252C21.8445 19.144 22.546 17.7712 22.8263 16.2795C23.1067 14.7878 22.9535 13.2438 22.3859 11.8418C21.8183 10.4397 20.8617 9.2423 19.6364 8.40008C18.4112 7.55787 16.972 7.10849 15.5 7.10849C14.028 7.10849 12.5888 7.55787 11.3636 8.40008C10.1383 9.2423 9.18174 10.4397 8.61414 11.8418C8.04654 13.2438 7.89329 14.7878 8.17366 16.2795C8.45403 17.7712 9.1555 19.144 10.1898 20.2252C8.56687 21.0431 7.14405 22.2292 6.02778 23.6948C4.62567 21.8601 3.75236 19.6549 3.50782 17.3317C3.26327 15.0085 3.65738 12.6611 4.64502 10.5583C5.63267 8.45555 7.17394 6.68233 9.09239 5.44165C11.0109 4.20097 13.229 3.54297 15.4928 3.54297C17.7567 3.54297 19.9748 4.20097 21.8933 5.44165C23.8117 6.68233 25.353 8.45555 26.3406 10.5583C27.3283 12.6611 27.7224 15.0085 27.4778 17.3317C27.2333 19.6549 26.36 21.8601 24.9579 23.6948H24.9722Z" fill="black"/>
</svg>
